<svg width="48" height="48" viewBox="0 0 48 48" fill="none" xmlns="http://www.w3.org/2000/svg">
<rect x="1" y="1" width="46" height="46" rx="7" fill="#16323E"/>
<rect x="1" y="1" width="46" height="46" rx="7" stroke="#7BCEF2" stroke-width="2"/>
<mask id="path-4-outside-1_8750_8333" maskUnits="userSpaceOnUse" x="7.01953" y="6.01758" width="35" height="36" fill="black">
<rect fill="white" x="7.01953" y="6.01758" width="35" height="36"/>
<path d="M30.2042 21.7656C30.4228 22.1049 30.6264 22.4291 30.8375 22.7533C30.9506 22.6855 31.0637 22.6176 31.1767 22.5497C32.4659 21.7807 33.7551 21.0042 35.0368 20.2352C35.1122 20.1899 35.18 20.107 35.2102 20.024C35.8661 18.3955 36.5145 16.767 37.1704 15.1385C37.3664 14.6409 37.9359 12.2962 38.4561 12.3489C38.916 12.3866 39.1532 14.8219 39.2512 15.2968C39.2964 15.508 39.2738 15.7115 39.1909 15.9151C38.4671 17.717 37.7509 19.5189 37.0271 21.3133C36.9291 21.5545 36.7557 21.728 36.5371 21.8637C34.9463 22.8136 33.3556 23.7711 31.7573 24.7211C31.5989 24.8191 31.5311 24.9096 31.5914 25.083C31.6065 25.1207 31.6065 25.1584 31.614 25.2187C31.6743 25.2187 31.7422 25.2262 31.8025 25.2262C33.1746 25.2262 34.5467 25.2262 35.9189 25.2262C36.5446 25.2262 36.9216 25.5052 37.095 26.1083C37.8037 28.5813 38.5123 31.0617 39.2135 33.5346C39.3869 34.1529 38.5044 36.5629 37.9239 36.7287C37.3283 36.9021 37.3136 34.7485 37.1327 34.1227C36.5069 31.9363 35.8812 29.7499 35.263 27.5634C35.2253 27.4353 35.18 27.39 35.0443 27.39C33.9662 27.39 32.8806 27.39 31.8025 27.39C31.6592 27.39 31.6215 27.4353 31.5914 27.5634C31.5311 27.7896 31.5914 27.963 31.7346 28.1515C32.7223 29.4483 33.6873 30.7526 34.6674 32.0494C34.8558 32.2982 34.9539 32.5621 34.9539 32.8787C34.9539 34.6429 34.9539 36.4147 34.9539 38.1789C34.9539 38.7971 34.4864 39.2721 33.8758 39.2721C33.2651 39.2721 32.7901 38.7971 32.7901 38.1714C32.7901 36.5504 32.7901 34.9294 32.7901 33.3085C32.7901 33.2104 32.7524 33.1049 32.6921 33.022C32.0362 32.1323 31.3652 31.2502 30.7018 30.3681C30.6716 30.3304 30.649 30.3002 30.6113 30.255C29.0658 32.5621 26.9397 33.8588 24.1352 33.8588C21.3382 33.8588 19.2121 32.5621 17.6666 30.255C17.6364 30.2927 17.6063 30.3229 17.5837 30.353C16.9127 31.2502 16.2342 32.1474 15.5707 33.0446C15.5255 33.1124 15.4953 33.2104 15.4953 33.2858C15.4953 34.9143 15.4953 36.5504 15.4953 38.1789C15.4953 38.6313 15.2767 38.9705 14.8696 39.159C14.6745 39.2493 14.4812 39.2843 14.2946 39.2646C14.0917 39.2433 13.8967 39.1575 13.7161 39.0082C13.4673 38.8047 13.3316 38.5333 13.3316 38.2091C13.3316 36.3921 13.3316 34.5751 13.3316 32.7581C13.3316 32.5017 13.4296 32.2831 13.5804 32.0795C14.5831 30.7451 15.5782 29.4106 16.5885 28.0837C16.694 27.9404 16.7619 27.8122 16.7016 27.6388C16.679 27.5634 16.6714 27.4805 16.6639 27.39C16.6111 27.39 16.5583 27.3825 16.5056 27.3825C15.4124 27.3825 14.3267 27.3825 13.2336 27.3825C13.1054 27.3825 13.0677 27.4277 13.03 27.5408C12.4043 29.7423 11.771 31.9438 11.1452 34.1453C10.9944 34.658 10.7364 36.7589 10.2162 36.7287C9.71861 36.7061 9.13227 34.56 9.03427 34.0473C8.98903 33.8061 9.05688 33.5799 9.1172 33.3537C9.81834 30.9109 10.5119 28.4682 11.2131 26.0329C11.3639 25.5203 11.7634 25.2187 12.3213 25.2187C13.6407 25.2187 14.9676 25.2187 16.2869 25.2187C16.4076 25.2187 16.5357 25.2187 16.6714 25.2187C16.6865 25.0981 16.7167 25 16.7167 24.8945C16.7167 24.8493 16.6639 24.7965 16.6186 24.7739C15.4953 24.0953 14.372 23.4243 13.2486 22.7458C12.7586 22.4517 12.261 22.1502 11.771 21.8637C11.5222 21.7204 11.3563 21.5168 11.2432 21.253C10.6024 19.6546 9.96912 18.0563 9.32829 16.4655C9.23782 16.2393 9.12474 16.0131 9.06442 15.7794C8.91364 15.2064 9.37003 12.56 9.92039 12.3866C10.4707 12.2132 10.904 14.5655 11.1301 15.1234C11.7634 16.7067 12.3967 18.29 13.03 19.8733C13.1054 20.0617 13.1959 20.205 13.3844 20.3105C14.7112 21.0946 16.0306 21.8863 17.3499 22.6779C17.3952 22.7005 17.4329 22.7232 17.4781 22.7458C17.6892 22.4216 17.8928 22.1049 18.1265 21.743C18.0888 21.7204 18.0285 21.6903 17.9908 21.6526C16.9353 20.597 15.8798 19.5415 14.8243 18.4936C14.568 18.2372 14.4474 17.9432 14.4474 17.5813C14.4474 15.1008 14.4474 12.6128 14.4474 10.1324C14.4474 9.3935 15.0731 8.88836 15.7893 9.04669C16.2568 9.1447 16.6111 9.58953 16.6111 10.0871C16.6111 10.7808 16.6111 11.4819 16.6111 12.1755C16.6111 13.789 16.6111 15.4024 16.6111 17.0083C16.6111 17.1515 16.6488 17.2571 16.7544 17.3626C17.6967 18.2975 18.6316 19.2324 19.574 20.1748C19.5966 20.1975 19.6268 20.2201 19.6268 20.2276C20.2073 19.9034 20.7727 19.5792 21.3608 19.255C21.3532 19.24 21.3306 19.1947 21.308 19.1419C21.0818 18.7047 20.9461 18.2523 20.9461 17.7622C20.9461 16.6313 20.931 15.5004 20.9461 14.3695C20.9612 13.2461 21.9488 11.7007 23.0495 11.6856C23.0722 11.6856 23.1023 11.6856 23.14 11.6856L22.7032 13.8143L23.1023 14.6258C23.8336 14.3695 24.5423 14.362 25.266 14.6258L25.577 13.8143L25.266 11.6856C25.5145 11.6856 25.6656 11.7308 25.8541 11.7836C26.789 12.0399 27.4373 13.4497 27.4373 14.4223C27.4373 15.5155 27.4373 16.6012 27.4373 17.6944C27.4373 18.192 27.3092 18.667 27.0905 19.1118C27.0604 19.1646 27.0377 19.2173 27.0227 19.255C27.5956 19.5792 28.1611 19.8959 28.7491 20.2276C28.7491 20.2276 28.7868 20.1899 28.8245 20.1598C29.7669 19.2173 30.7169 18.2674 31.6592 17.3249C31.7346 17.2496 31.7573 17.1817 31.7573 17.0761C31.7573 14.7616 31.7573 12.4394 31.7573 10.1248C31.7573 9.66492 31.9683 9.32565 32.383 9.12962C32.7826 8.94114 33.1746 8.99392 33.5214 9.27287C33.7777 9.47644 33.9135 9.75539 33.9135 10.0796C33.9135 12.1228 33.9135 14.1659 33.9135 16.2091C33.9135 16.6841 33.9135 17.1591 33.9135 17.6341C33.9135 17.9658 33.8004 18.2372 33.5667 18.4634C32.5036 19.5264 31.4406 20.582 30.3776 21.645C30.3324 21.6903 30.2871 21.728 30.2419 21.7656H30.2042Z"/>
</mask>
<path d="M30.2042 21.7656C30.4228 22.1049 30.6264 22.4291 30.8375 22.7533C30.9506 22.6855 31.0637 22.6176 31.1767 22.5497C32.4659 21.7807 33.7551 21.0042 35.0368 20.2352C35.1122 20.1899 35.18 20.107 35.2102 20.024C35.8661 18.3955 36.5145 16.767 37.1704 15.1385C37.3664 14.6409 37.9359 12.2962 38.4561 12.3489C38.916 12.3866 39.1532 14.8219 39.2512 15.2968C39.2964 15.508 39.2738 15.7115 39.1909 15.9151C38.4671 17.717 37.7509 19.5189 37.0271 21.3133C36.9291 21.5545 36.7557 21.728 36.5371 21.8637C34.9463 22.8136 33.3556 23.7711 31.7573 24.7211C31.5989 24.8191 31.5311 24.9096 31.5914 25.083C31.6065 25.1207 31.6065 25.1584 31.614 25.2187C31.6743 25.2187 31.7422 25.2262 31.8025 25.2262C33.1746 25.2262 34.5467 25.2262 35.9189 25.2262C36.5446 25.2262 36.9216 25.5052 37.095 26.1083C37.8037 28.5813 38.5123 31.0617 39.2135 33.5346C39.3869 34.1529 38.5044 36.5629 37.9239 36.7287C37.3283 36.9021 37.3136 34.7485 37.1327 34.1227C36.5069 31.9363 35.8812 29.7499 35.263 27.5634C35.2253 27.4353 35.18 27.39 35.0443 27.39C33.9662 27.39 32.8806 27.39 31.8025 27.39C31.6592 27.39 31.6215 27.4353 31.5914 27.5634C31.5311 27.7896 31.5914 27.963 31.7346 28.1515C32.7223 29.4483 33.6873 30.7526 34.6674 32.0494C34.8558 32.2982 34.9539 32.5621 34.9539 32.8787C34.9539 34.6429 34.9539 36.4147 34.9539 38.1789C34.9539 38.7971 34.4864 39.2721 33.8758 39.2721C33.2651 39.2721 32.7901 38.7971 32.7901 38.1714C32.7901 36.5504 32.7901 34.9294 32.7901 33.3085C32.7901 33.2104 32.7524 33.1049 32.6921 33.022C32.0362 32.1323 31.3652 31.2502 30.7018 30.3681C30.6716 30.3304 30.649 30.3002 30.6113 30.255C29.0658 32.5621 26.9397 33.8588 24.1352 33.8588C21.3382 33.8588 19.2121 32.5621 17.6666 30.255C17.6364 30.2927 17.6063 30.3229 17.5837 30.353C16.9127 31.2502 16.2342 32.1474 15.5707 33.0446C15.5255 33.1124 15.4953 33.2104 15.4953 33.2858C15.4953 34.9143 15.4953 36.5504 15.4953 38.1789C15.4953 38.6313 15.2767 38.9705 14.8696 39.159C14.6745 39.2493 14.4812 39.2843 14.2946 39.2646C14.0917 39.2433 13.8967 39.1575 13.7161 39.0082C13.4673 38.8047 13.3316 38.5333 13.3316 38.2091C13.3316 36.3921 13.3316 34.5751 13.3316 32.7581C13.3316 32.5017 13.4296 32.2831 13.5804 32.0795C14.5831 30.7451 15.5782 29.4106 16.5885 28.0837C16.694 27.9404 16.7619 27.8122 16.7016 27.6388C16.679 27.5634 16.6714 27.4805 16.6639 27.39C16.6111 27.39 16.5583 27.3825 16.5056 27.3825C15.4124 27.3825 14.3267 27.3825 13.2336 27.3825C13.1054 27.3825 13.0677 27.4277 13.03 27.5408C12.4043 29.7423 11.771 31.9438 11.1452 34.1453C10.9944 34.658 10.7364 36.7589 10.2162 36.7287C9.71861 36.7061 9.13227 34.56 9.03427 34.0473C8.98903 33.8061 9.05688 33.5799 9.1172 33.3537C9.81834 30.9109 10.5119 28.4682 11.2131 26.0329C11.3639 25.5203 11.7634 25.2187 12.3213 25.2187C13.6407 25.2187 14.9676 25.2187 16.2869 25.2187C16.4076 25.2187 16.5357 25.2187 16.6714 25.2187C16.6865 25.0981 16.7167 25 16.7167 24.8945C16.7167 24.8493 16.6639 24.7965 16.6186 24.7739C15.4953 24.0953 14.372 23.4243 13.2486 22.7458C12.7586 22.4517 12.261 22.1502 11.771 21.8637C11.5222 21.7204 11.3563 21.5168 11.2432 21.253C10.6024 19.6546 9.96912 18.0563 9.32829 16.4655C9.23782 16.2393 9.12474 16.0131 9.06442 15.7794C8.91364 15.2064 9.37003 12.56 9.92039 12.3866C10.4707 12.2132 10.904 14.5655 11.1301 15.1234C11.7634 16.7067 12.3967 18.29 13.03 19.8733C13.1054 20.0617 13.1959 20.205 13.3844 20.3105C14.7112 21.0946 16.0306 21.8863 17.3499 22.6779C17.3952 22.7005 17.4329 22.7232 17.4781 22.7458C17.6892 22.4216 17.8928 22.1049 18.1265 21.743C18.0888 21.7204 18.0285 21.6903 17.9908 21.6526C16.9353 20.597 15.8798 19.5415 14.8243 18.4936C14.568 18.2372 14.4474 17.9432 14.4474 17.5813C14.4474 15.1008 14.4474 12.6128 14.4474 10.1324C14.4474 9.3935 15.0731 8.88836 15.7893 9.04669C16.2568 9.1447 16.6111 9.58953 16.6111 10.0871C16.6111 10.7808 16.6111 11.4819 16.6111 12.1755C16.6111 13.789 16.6111 15.4024 16.6111 17.0083C16.6111 17.1515 16.6488 17.2571 16.7544 17.3626C17.6967 18.2975 18.6316 19.2324 19.574 20.1748C19.5966 20.1975 19.6268 20.2201 19.6268 20.2276C20.2073 19.9034 20.7727 19.5792 21.3608 19.255C21.3532 19.24 21.3306 19.1947 21.308 19.1419C21.0818 18.7047 20.9461 18.2523 20.9461 17.7622C20.9461 16.6313 20.931 15.5004 20.9461 14.3695C20.9612 13.2461 21.9488 11.7007 23.0495 11.6856C23.0722 11.6856 23.1023 11.6856 23.14 11.6856L22.7032 13.8143L23.1023 14.6258C23.8336 14.3695 24.5423 14.362 25.266 14.6258L25.577 13.8143L25.266 11.6856C25.5145 11.6856 25.6656 11.7308 25.8541 11.7836C26.789 12.0399 27.4373 13.4497 27.4373 14.4223C27.4373 15.5155 27.4373 16.6012 27.4373 17.6944C27.4373 18.192 27.3092 18.667 27.0905 19.1118C27.0604 19.1646 27.0377 19.2173 27.0227 19.255C27.5956 19.5792 28.1611 19.8959 28.7491 20.2276C28.7491 20.2276 28.7868 20.1899 28.8245 20.1598C29.7669 19.2173 30.7169 18.2674 31.6592 17.3249C31.7346 17.2496 31.7573 17.1817 31.7573 17.0761C31.7573 14.7616 31.7573 12.4394 31.7573 10.1248C31.7573 9.66492 31.9683 9.32565 32.383 9.12962C32.7826 8.94114 33.1746 8.99392 33.5214 9.27287C33.7777 9.47644 33.9135 9.75539 33.9135 10.0796C33.9135 12.1228 33.9135 14.1659 33.9135 16.2091C33.9135 16.6841 33.9135 17.1591 33.9135 17.6341C33.9135 17.9658 33.8004 18.2372 33.5667 18.4634C32.5036 19.5264 31.4406 20.582 30.3776 21.645C30.3324 21.6903 30.2871 21.728 30.2419 21.7656H30.2042Z" fill="#2A5162"/>
<path d="M30.2042 21.7656C30.4228 22.1049 30.6264 22.4291 30.8375 22.7533C30.9506 22.6855 31.0637 22.6176 31.1767 22.5497C32.4659 21.7807 33.7551 21.0042 35.0368 20.2352C35.1122 20.1899 35.18 20.107 35.2102 20.024C35.8661 18.3955 36.5145 16.767 37.1704 15.1385C37.3664 14.6409 37.9359 12.2962 38.4561 12.3489C38.916 12.3866 39.1532 14.8219 39.2512 15.2968C39.2964 15.508 39.2738 15.7115 39.1909 15.9151C38.4671 17.717 37.7509 19.5189 37.0271 21.3133C36.9291 21.5545 36.7557 21.728 36.5371 21.8637C34.9463 22.8136 33.3556 23.7711 31.7573 24.7211C31.5989 24.8191 31.5311 24.9096 31.5914 25.083C31.6065 25.1207 31.6065 25.1584 31.614 25.2187C31.6743 25.2187 31.7422 25.2262 31.8025 25.2262C33.1746 25.2262 34.5467 25.2262 35.9189 25.2262C36.5446 25.2262 36.9216 25.5052 37.095 26.1083C37.8037 28.5813 38.5123 31.0617 39.2135 33.5346C39.3869 34.1529 38.5044 36.5629 37.9239 36.7287C37.3283 36.9021 37.3136 34.7485 37.1327 34.1227C36.5069 31.9363 35.8812 29.7499 35.263 27.5634C35.2253 27.4353 35.18 27.39 35.0443 27.39C33.9662 27.39 32.8806 27.39 31.8025 27.39C31.6592 27.39 31.6215 27.4353 31.5914 27.5634C31.5311 27.7896 31.5914 27.963 31.7346 28.1515C32.7223 29.4483 33.6873 30.7526 34.6674 32.0494C34.8558 32.2982 34.9539 32.5621 34.9539 32.8787C34.9539 34.6429 34.9539 36.4147 34.9539 38.1789C34.9539 38.7971 34.4864 39.2721 33.8758 39.2721C33.2651 39.2721 32.7901 38.7971 32.7901 38.1714C32.7901 36.5504 32.7901 34.9294 32.7901 33.3085C32.7901 33.2104 32.7524 33.1049 32.6921 33.022C32.0362 32.1323 31.3652 31.2502 30.7018 30.3681C30.6716 30.3304 30.649 30.3002 30.6113 30.255C29.0658 32.5621 26.9397 33.8588 24.1352 33.8588C21.3382 33.8588 19.2121 32.5621 17.6666 30.255C17.6364 30.2927 17.6063 30.3229 17.5837 30.353C16.9127 31.2502 16.2342 32.1474 15.5707 33.0446C15.5255 33.1124 15.4953 33.2104 15.4953 33.2858C15.4953 34.9143 15.4953 36.5504 15.4953 38.1789C15.4953 38.6313 15.2767 38.9705 14.8696 39.159C14.6745 39.2493 14.4812 39.2843 14.2946 39.2646C14.0917 39.2433 13.8967 39.1575 13.7161 39.0082C13.4673 38.8047 13.3316 38.5333 13.3316 38.2091C13.3316 36.3921 13.3316 34.5751 13.3316 32.7581C13.3316 32.5017 13.4296 32.2831 13.5804 32.0795C14.5831 30.7451 15.5782 29.4106 16.5885 28.0837C16.694 27.9404 16.7619 27.8122 16.7016 27.6388C16.679 27.5634 16.6714 27.4805 16.6639 27.39C16.6111 27.39 16.5583 27.3825 16.5056 27.3825C15.4124 27.3825 14.3267 27.3825 13.2336 27.3825C13.1054 27.3825 13.0677 27.4277 13.03 27.5408C12.4043 29.7423 11.771 31.9438 11.1452 34.1453C10.9944 34.658 10.7364 36.7589 10.2162 36.7287C9.71861 36.7061 9.13227 34.56 9.03427 34.0473C8.98903 33.8061 9.05688 33.5799 9.1172 33.3537C9.81834 30.9109 10.5119 28.4682 11.2131 26.0329C11.3639 25.5203 11.7634 25.2187 12.3213 25.2187C13.6407 25.2187 14.9676 25.2187 16.2869 25.2187C16.4076 25.2187 16.5357 25.2187 16.6714 25.2187C16.6865 25.0981 16.7167 25 16.7167 24.8945C16.7167 24.8493 16.6639 24.7965 16.6186 24.7739C15.4953 24.0953 14.372 23.4243 13.2486 22.7458C12.7586 22.4517 12.261 22.1502 11.771 21.8637C11.5222 21.7204 11.3563 21.5168 11.2432 21.253C10.6024 19.6546 9.96912 18.0563 9.32829 16.4655C9.23782 16.2393 9.12474 16.0131 9.06442 15.7794C8.91364 15.2064 9.37003 12.56 9.92039 12.3866C10.4707 12.2132 10.904 14.5655 11.1301 15.1234C11.7634 16.7067 12.3967 18.29 13.03 19.8733C13.1054 20.0617 13.1959 20.205 13.3844 20.3105C14.7112 21.0946 16.0306 21.8863 17.3499 22.6779C17.3952 22.7005 17.4329 22.7232 17.4781 22.7458C17.6892 22.4216 17.8928 22.1049 18.1265 21.743C18.0888 21.7204 18.0285 21.6903 17.9908 21.6526C16.9353 20.597 15.8798 19.5415 14.8243 18.4936C14.568 18.2372 14.4474 17.9432 14.4474 17.5813C14.4474 15.1008 14.4474 12.6128 14.4474 10.1324C14.4474 9.3935 15.0731 8.88836 15.7893 9.04669C16.2568 9.1447 16.6111 9.58953 16.6111 10.0871C16.6111 10.7808 16.6111 11.4819 16.6111 12.1755C16.6111 13.789 16.6111 15.4024 16.6111 17.0083C16.6111 17.1515 16.6488 17.2571 16.7544 17.3626C17.6967 18.2975 18.6316 19.2324 19.574 20.1748C19.5966 20.1975 19.6268 20.2201 19.6268 20.2276C20.2073 19.9034 20.7727 19.5792 21.3608 19.255C21.3532 19.24 21.3306 19.1947 21.308 19.1419C21.0818 18.7047 20.9461 18.2523 20.9461 17.7622C20.9461 16.6313 20.931 15.5004 20.9461 14.3695C20.9612 13.2461 21.9488 11.7007 23.0495 11.6856C23.0722 11.6856 23.1023 11.6856 23.14 11.6856L22.7032 13.8143L23.1023 14.6258C23.8336 14.3695 24.5423 14.362 25.266 14.6258L25.577 13.8143L25.266 11.6856C25.5145 11.6856 25.6656 11.7308 25.8541 11.7836C26.789 12.0399 27.4373 13.4497 27.4373 14.4223C27.4373 15.5155 27.4373 16.6012 27.4373 17.6944C27.4373 18.192 27.3092 18.667 27.0905 19.1118C27.0604 19.1646 27.0377 19.2173 27.0227 19.255C27.5956 19.5792 28.1611 19.8959 28.7491 20.2276C28.7491 20.2276 28.7868 20.1899 28.8245 20.1598C29.7669 19.2173 30.7169 18.2674 31.6592 17.3249C31.7346 17.2496 31.7573 17.1817 31.7573 17.0761C31.7573 14.7616 31.7573 12.4394 31.7573 10.1248C31.7573 9.66492 31.9683 9.32565 32.383 9.12962C32.7826 8.94114 33.1746 8.99392 33.5214 9.27287C33.7777 9.47644 33.9135 9.75539 33.9135 10.0796C33.9135 12.1228 33.9135 14.1659 33.9135 16.2091C33.9135 16.6841 33.9135 17.1591 33.9135 17.6341C33.9135 17.9658 33.8004 18.2372 33.5667 18.4634C32.5036 19.5264 31.4406 20.582 30.3776 21.645C30.3324 21.6903 30.2871 21.728 30.2419 21.7656H30.2042Z" stroke="#7BCEF2" stroke-width="4" mask="url(#path-4-outside-1_8750_8333)"/>
</svg>
